PathFileType	4	(X/Y/Z)	 s09c0302.trc
DataRate	CameraRate	NumFrames	NumMarkers	Units	OrigDataRate	OrigDataStartFrame	OrigNumFrames
200	200	4	50	mm	200	1251	2000
Frame#	Time	racr			lacr			c7			jug			rlel			rdr			llel			ldr			s2			lic			ric			lasi			rasi			rpsi			lpsi			rgt			lgt			rth1			rth2			rth3			rth4			rlfc			rmfc			rsh1			rsh2			rsh3			rsh4			rlmal			rmmal			rcal			rtoe			rmt5			lth1			lth2			lth4			lth3			llfc			lmfc			llmal			lmmal			lcal			lmt5			lsh1			lsh2			lsh3			lsh4			ltoe			SBIKE			LBIKE			RBIKE			
		X1	Y1	Z1	X2	Y2	Z2	X3	Y3	Z3	X4	Y4	Z4	X5	Y5	Z5	X6	Y6	Z6	X7	Y7	Z7	X8	Y8	Z8	X9	Y9	Z9	X10	Y10	Z10	X11	Y11	Z11	X12	Y12	Z12	X13	Y13	Z13	X14	Y14	Z14	X15	Y15	Z15	X16	Y16	Z16	X17	Y17	Z17	X18	Y18	Z18	X19	Y19	Z19	X20	Y20	Z20	X21	Y21	Z21	X22	Y22	Z22	X23	Y23	Z23	X24	Y24	Z24	X25	Y25	Z25	X26	Y26	Z26	X27	Y27	Z27	X28	Y28	Z28	X29	Y29	Z29	X30	Y30	Z30	X31	Y31	Z31	X32	Y32	Z32	X33	Y33	Z33	X34	Y34	Z34	X35	Y35	Z35	X36	Y36	Z36	X37	Y37	Z37	X38	Y38	Z38	X39	Y39	Z39	X40	Y40	Z40	X41	Y41	Z41	X42	Y42	Z42	X43	Y43	Z43	X44	Y44	Z44	X45	Y45	Z45	X46	Y46	Z46	X47	Y47	Z47	X48	Y48	Z48	X49	Y49	Z49	X50	Y50	Z50	
1251	6.2550	649.364015	1384.444630	-47.161885	732.754987	1323.396850	-380.421713	675.944024	1407.145396	-219.423499	689.999238	1273.461111	-200.382984	590.815903	1115.263950	-28.043371	719.242379	890.171190	-62.793409	614.579814	1093.819079	-500.213443	722.003266	880.490974	-458.578947	215.794896	1169.415328	-295.062558	401.505169	1125.426509	-400.844780	329.459558	1197.767860	-127.005462	420.139336	1073.549407	-358.204727	371.732468	1136.881388	-122.693164	241.740819	1206.936495	-247.816865	272.728381	1193.223473	-351.892886	301.047178	1069.577902	-67.940718	335.839792	1000.217738	-439.715424	419.652799	988.767640	-61.246147	503.896411	965.627582	-59.557183	562.668670	899.382147	-55.755044	522.597115	989.759322	-80.330433	631.849638	815.876272	-80.124459	626.777193	797.295634	-183.040490	546.599126	755.093491	-59.604692	499.229792	680.177130	-76.238899	421.342311	640.775113	-79.604379	520.497282	662.681795	-104.085184	344.841116	567.233167	-85.209922	353.697559	580.037137	-161.281875	257.669083	572.924738	-125.314093	491.074538	445.051247	-128.125254	410.427200	469.150351	-64.701969	349.571423	874.373916	-434.872947	379.379923	795.317360	-425.696076	413.979758	798.419899	-409.410764	363.931919	706.146955	-418.752401	351.811942	609.565690	-403.489972	356.580131	591.524103	-305.117073	159.120884	299.282812	-412.528582	184.149831	296.782260	-346.092290	88.744130	304.731139	-374.076252	202.655932	171.541903	-430.764631	294.138962	527.654233	-428.376846	272.037205	444.189471	-420.744196	209.647287	381.044347	-418.942054	296.578950	432.655517	-391.369770	289.665130	137.341883	-362.239518	-65.395422	852.053371	-239.815798	20.744743	84.771928	-442.245319	20.986494	84.188428	-43.905478	
1252	6.2600	649.692242	1383.020153	-45.156169	733.836538	1323.673351	-378.277160	677.119582	1406.364047	-216.515500	690.072553	1272.480280	-198.610570	589.285216	1114.164912	-27.539553	719.042976	890.164872	-62.750349	616.578134	1094.878161	-499.405696	721.750392	880.423125	-458.188792	216.313238	1170.287201	-296.867699	402.917695	1127.752411	-402.178073	329.397377	1197.843504	-128.266010	421.469397	1075.320174	-359.645579	371.753337	1137.192785	-123.883435	242.327632	1207.978943	-249.200425	273.800785	1194.730502	-353.138165	300.254677	1068.477147	-69.942405	338.824408	1001.591238	-441.935657	417.849753	986.410203	-62.446391	502.003290	962.648006	-59.436360	560.117734	895.779627	-55.861291	521.241568	987.064772	-79.564912	629.750433	813.074079	-79.638931	625.532513	794.841379	-182.394746	545.850882	749.755819	-59.281392	500.061324	674.378056	-76.768899	422.931574	633.463302	-80.486741	521.646922	657.547560	-104.686356	348.274390	558.449930	-86.599600	356.856598	571.322369	-162.704525	260.251557	561.089550	-127.437126	499.296564	442.956226	-127.802668	417.264936	463.839940	-64.752807	353.821082	875.678211	-436.134385	384.259011	796.944360	-426.516137	418.776928	800.342333	-410.156019	369.638169	707.590544	-419.666243	356.620466	610.652984	-405.072800	361.752384	592.469806	-307.166279	153.716161	306.559598	-412.652642	178.875160	303.536862	-345.927407	83.691345	313.442838	-373.685426	194.444797	177.899297	-430.653318	296.338033	530.330738	-429.755412	271.420420	447.621765	-421.627184	206.947327	386.673741	-419.366013	295.647969	435.425626	-392.275161	280.654930	141.824003	-362.415384	-65.367744	852.074482	-239.729814	20.729555	84.801173	-442.223522	20.980392	84.188776	-43.912417	
1253	6.2650	650.280273	1381.488576	-43.229505	734.756191	1323.999700	-376.212528	678.380103	1405.474497	-213.580159	690.115999	1271.374994	-197.009889	587.891490	1113.043418	-26.937012	718.855518	890.085780	-62.656281	618.878419	1095.604642	-498.097006	722.075015	880.485552	-458.293965	216.870430	1171.173166	-298.447292	404.223284	1130.010953	-403.389699	329.547528	1197.899081	-129.080685	422.436341	1077.082887	-361.388831	371.794153	1137.217779	-125.000881	241.732181	1209.447189	-251.522914	274.940204	1196.658604	-354.400971	299.514380	1067.182232	-71.985002	341.440436	1003.130712	-443.805884	416.104805	983.773270	-63.534852	500.039582	959.180656	-59.382160	557.367443	891.844014	-55.984554	519.901152	983.824781	-78.846689	626.938686	809.848934	-79.119799	623.776637	791.559615	-181.850641	544.837590	744.239237	-59.483503	500.361073	667.784209	-77.236561	424.130933	625.280607	-81.147442	522.244283	651.690139	-105.420657	351.847465	548.448173	-87.769511	359.348665	562.215713	-163.549075	263.679807	548.474900	-128.941841	506.829830	440.175255	-128.027061	424.207118	457.696477	-64.937632	358.194519	877.011122	-437.205807	389.438580	798.739623	-427.150144	423.878185	802.653969	-410.775116	375.938972	709.113187	-420.144545	362.316710	611.981467	-406.594289	367.759411	593.328581	-309.166529	148.928493	314.322166	-412.782754	174.434764	310.666358	-345.736588	79.269958	322.779621	-373.248975	186.814789	184.776547	-430.536174	299.287464	533.150855	-430.900219	271.512665	451.450378	-422.258939	204.977380	392.827327	-419.697057	295.398207	438.489988	-392.928164	271.935307	146.368009	-362.274998	-65.330217	852.113072	-239.655237	20.731023	84.845827	-442.227571	20.988596	84.196672	-43.910995	
1254	6.2700	651.058147	1379.964279	-41.347504	735.435297	1324.607330	-374.206859	679.339593	1404.490645	-210.390810	690.394959	1270.230947	-195.259764	586.776922	1111.969829	-26.419384	718.708225	889.956346	-62.521653	620.493103	1096.485942	-497.431860	722.416846	880.542685	-458.327158	217.470175	1172.061635	-299.806528	405.336175	1132.289633	-404.579750	329.741625	1197.671433	-129.739988	423.523896	1079.640627	-362.582393	371.961921	1136.943159	-126.061096	242.324674	1210.295128	-252.048774	276.249935	1198.183978	-355.191836	298.951465	1065.632384	-73.938800	343.972578	1004.686459	-445.208748	414.478590	981.042563	-64.479349	498.001534	955.337105	-59.403199	554.453085	887.298013	-56.363213	518.609813	980.433103	-77.932895	623.434874	805.800579	-78.497568	621.603806	787.642747	-181.417791	543.025787	737.781012	-59.235293	500.338114	660.625123	-77.483390	425.029057	616.500666	-81.471230	522.502981	645.206947	-105.880972	355.132751	538.197231	-88.174514	361.765570	552.413757	-164.075269	266.157237	534.861376	-130.044561	513.697184	436.665932	-127.754909	430.788064	450.881255	-64.670125	362.622597	878.371211	-438.204845	394.848030	800.585204	-427.621971	429.199455	804.950736	-411.250627	382.655356	710.891717	-420.780882	368.869367	613.222065	-407.931143	374.376605	594.185409	-311.113936	144.940301	322.539623	-412.911090	170.630981	318.156594	-345.499535	75.651163	332.678889	-373.082962	179.697846	192.123543	-430.491956	302.803230	536.057239	-431.611335	272.323915	455.531768	-422.814844	203.718560	399.329509	-420.046322	295.871079	442.146198	-393.884236	263.038286	149.848958	-360.080880	-65.300608	852.136668	-239.615017	20.744016	84.864804	-442.238935	20.985507	84.197978	-43.902331	
